<mxfile host="app.diagrams.net" agent="Mozilla/5.0 (Macintosh; Intel Mac OS X 10_15_7) AppleWebKit/537.36 (KHTML, like Gecko) Chrome/131.0.0.0 Safari/537.36" version="26.0.10">
  <diagram name="Page-1" id="_7YLtgnWRgTlRG4xe_qp">
    <mxGraphModel dx="1026" dy="571" grid="1" gridSize="10" guides="1" tooltips="1" connect="1" arrows="1" fold="1" page="1" pageScale="1" pageWidth="827" pageHeight="1169" math="0" shadow="0">
      <root>
        <mxCell id="0" />
        <mxCell id="1" parent="0" />
        <mxCell id="dyAfvpqwDamj-RmIY7jS-1" value="" style="rounded=1;whiteSpace=wrap;html=1;" vertex="1" parent="1">
          <mxGeometry x="140" y="70" width="540" height="260" as="geometry" />
        </mxCell>
        <mxCell id="dyAfvpqwDamj-RmIY7jS-67" value="" style="rounded=1;whiteSpace=wrap;html=1;" vertex="1" parent="1">
          <mxGeometry x="150" y="100" width="520" height="100" as="geometry" />
        </mxCell>
        <mxCell id="dyAfvpqwDamj-RmIY7jS-2" value="" style="rounded=1;whiteSpace=wrap;html=1;" vertex="1" parent="1">
          <mxGeometry x="140" y="400" width="530" height="70" as="geometry" />
        </mxCell>
        <mxCell id="dyAfvpqwDamj-RmIY7jS-6" value="&lt;font face=&quot;Comic Sans MS&quot; style=&quot;font-size: 24px;&quot;&gt;Server&lt;/font&gt;" style="text;html=1;align=center;verticalAlign=middle;whiteSpace=wrap;rounded=0;" vertex="1" parent="1">
          <mxGeometry x="384" y="420" width="60" height="30" as="geometry" />
        </mxCell>
        <mxCell id="dyAfvpqwDamj-RmIY7jS-7" value="&lt;font face=&quot;Comic Sans MS&quot; style=&quot;font-size: 14px;&quot;&gt;JSON&lt;/font&gt;" style="text;html=1;align=center;verticalAlign=middle;whiteSpace=wrap;rounded=0;" vertex="1" parent="1">
          <mxGeometry x="270" y="350" width="60" height="30" as="geometry" />
        </mxCell>
        <mxCell id="dyAfvpqwDamj-RmIY7jS-8" value="&lt;font face=&quot;Comic Sans MS&quot; style=&quot;font-size: 18px;&quot;&gt;Controller&lt;/font&gt;" style="rounded=1;whiteSpace=wrap;html=1;" vertex="1" parent="1">
          <mxGeometry x="170" y="240" width="230" height="70" as="geometry" />
        </mxCell>
        <mxCell id="dyAfvpqwDamj-RmIY7jS-9" value="&lt;font face=&quot;Comic Sans MS&quot; style=&quot;font-size: 18px;&quot;&gt;Client Store&lt;/font&gt;" style="rounded=1;whiteSpace=wrap;html=1;" vertex="1" parent="1">
          <mxGeometry x="444" y="240" width="206" height="70" as="geometry" />
        </mxCell>
        <mxCell id="dyAfvpqwDamj-RmIY7jS-10" value="&lt;font face=&quot;Comic Sans MS&quot;&gt;Product Listing&lt;/font&gt;" style="rounded=1;whiteSpace=wrap;html=1;" vertex="1" parent="1">
          <mxGeometry x="160" y="120" width="120" height="60" as="geometry" />
        </mxCell>
        <mxCell id="dyAfvpqwDamj-RmIY7jS-11" value="&lt;font face=&quot;Comic Sans MS&quot;&gt;Checkout&lt;/font&gt;" style="rounded=1;whiteSpace=wrap;html=1;" vertex="1" parent="1">
          <mxGeometry x="540" y="120" width="120" height="60" as="geometry" />
        </mxCell>
        <mxCell id="dyAfvpqwDamj-RmIY7jS-12" value="&lt;font face=&quot;Comic Sans MS&quot;&gt;Cart&lt;/font&gt;" style="rounded=1;whiteSpace=wrap;html=1;" vertex="1" parent="1">
          <mxGeometry x="414" y="120" width="120" height="60" as="geometry" />
        </mxCell>
        <mxCell id="dyAfvpqwDamj-RmIY7jS-13" value="&lt;font face=&quot;Comic Sans MS&quot;&gt;Product Details&lt;/font&gt;" style="rounded=1;whiteSpace=wrap;html=1;" vertex="1" parent="1">
          <mxGeometry x="290" y="120" width="120" height="60" as="geometry" />
        </mxCell>
        <mxCell id="dyAfvpqwDamj-RmIY7jS-17" value="" style="endArrow=classic;html=1;rounded=0;exitX=0.3;exitY=-0.029;exitDx=0;exitDy=0;exitPerimeter=0;" edge="1" parent="1" source="dyAfvpqwDamj-RmIY7jS-8">
          <mxGeometry width="50" height="50" relative="1" as="geometry">
            <mxPoint x="190" y="230" as="sourcePoint" />
            <mxPoint x="240" y="180" as="targetPoint" />
          </mxGeometry>
        </mxCell>
        <mxCell id="dyAfvpqwDamj-RmIY7jS-18" value="" style="endArrow=classic;html=1;rounded=0;exitX=0.658;exitY=1;exitDx=0;exitDy=0;exitPerimeter=0;entryX=0.25;entryY=0;entryDx=0;entryDy=0;" edge="1" parent="1" source="dyAfvpqwDamj-RmIY7jS-10" target="dyAfvpqwDamj-RmIY7jS-8">
          <mxGeometry width="50" height="50" relative="1" as="geometry">
            <mxPoint x="190" y="240" as="sourcePoint" />
            <mxPoint x="200" y="239" as="targetPoint" />
          </mxGeometry>
        </mxCell>
        <mxCell id="dyAfvpqwDamj-RmIY7jS-19" value="&lt;font face=&quot;Comic Sans MS&quot;&gt;Products&lt;/font&gt;" style="text;html=1;align=center;verticalAlign=middle;whiteSpace=wrap;rounded=0;" vertex="1" parent="1">
          <mxGeometry x="240" y="200" width="60" height="30" as="geometry" />
        </mxCell>
        <mxCell id="dyAfvpqwDamj-RmIY7jS-21" value="&lt;font face=&quot;Comic Sans MS&quot;&gt;Add to Cart&lt;/font&gt;" style="text;html=1;align=center;verticalAlign=middle;whiteSpace=wrap;rounded=0;" vertex="1" parent="1">
          <mxGeometry x="170" y="200" width="60" height="30" as="geometry" />
        </mxCell>
        <mxCell id="dyAfvpqwDamj-RmIY7jS-22" value="&lt;font face=&quot;Comic Sans MS&quot;&gt;Product&lt;/font&gt;" style="text;html=1;align=center;verticalAlign=middle;whiteSpace=wrap;rounded=0;" vertex="1" parent="1">
          <mxGeometry x="354" y="200" width="60" height="30" as="geometry" />
        </mxCell>
        <mxCell id="dyAfvpqwDamj-RmIY7jS-25" value="" style="endArrow=classic;html=1;rounded=0;exitX=0.783;exitY=0.043;exitDx=0;exitDy=0;exitPerimeter=0;entryX=0.592;entryY=0.967;entryDx=0;entryDy=0;entryPerimeter=0;" edge="1" parent="1">
          <mxGeometry width="50" height="50" relative="1" as="geometry">
            <mxPoint x="340.0899999999999" y="243.01" as="sourcePoint" />
            <mxPoint x="341.03999999999996" y="178.01999999999998" as="targetPoint" />
            <Array as="points">
              <mxPoint x="340" y="210" />
            </Array>
          </mxGeometry>
        </mxCell>
        <mxCell id="dyAfvpqwDamj-RmIY7jS-26" value="" style="endArrow=classic;html=1;rounded=0;exitX=0.383;exitY=1.017;exitDx=0;exitDy=0;exitPerimeter=0;entryX=0.674;entryY=0.014;entryDx=0;entryDy=0;entryPerimeter=0;" edge="1" parent="1" source="dyAfvpqwDamj-RmIY7jS-13" target="dyAfvpqwDamj-RmIY7jS-8">
          <mxGeometry width="50" height="50" relative="1" as="geometry">
            <mxPoint x="380" y="340" as="sourcePoint" />
            <mxPoint x="430" y="290" as="targetPoint" />
          </mxGeometry>
        </mxCell>
        <mxCell id="dyAfvpqwDamj-RmIY7jS-50" value="" style="endArrow=classic;html=1;rounded=0;entryX=0.97;entryY=0.057;entryDx=0;entryDy=0;entryPerimeter=0;exitX=0.5;exitY=1;exitDx=0;exitDy=0;" edge="1" parent="1" source="dyAfvpqwDamj-RmIY7jS-12" target="dyAfvpqwDamj-RmIY7jS-8">
          <mxGeometry width="50" height="50" relative="1" as="geometry">
            <mxPoint x="470.19961259914936" y="186.5" as="sourcePoint" />
            <mxPoint x="469.4959999999999" y="243.49" as="targetPoint" />
          </mxGeometry>
        </mxCell>
        <mxCell id="dyAfvpqwDamj-RmIY7jS-53" value="" style="endArrow=classic;html=1;entryX=0.692;entryY=1;entryDx=0;entryDy=0;entryPerimeter=0;exitX=1;exitY=0.25;exitDx=0;exitDy=0;" edge="1" parent="1" source="dyAfvpqwDamj-RmIY7jS-8" target="dyAfvpqwDamj-RmIY7jS-12">
          <mxGeometry width="50" height="50" relative="1" as="geometry">
            <mxPoint x="481.5" y="240" as="sourcePoint" />
            <mxPoint x="480" y="178.01999999999998" as="targetPoint" />
          </mxGeometry>
        </mxCell>
        <mxCell id="dyAfvpqwDamj-RmIY7jS-54" value="" style="endArrow=classic;html=1;entryX=1;entryY=0.5;entryDx=0;entryDy=0;" edge="1" parent="1" source="dyAfvpqwDamj-RmIY7jS-11" target="dyAfvpqwDamj-RmIY7jS-8">
          <mxGeometry width="50" height="50" relative="1" as="geometry">
            <mxPoint x="600" y="230" as="sourcePoint" />
            <mxPoint x="600" y="240" as="targetPoint" />
          </mxGeometry>
        </mxCell>
        <mxCell id="dyAfvpqwDamj-RmIY7jS-56" value="Cart Items&lt;div&gt;&lt;br&gt;&lt;/div&gt;" style="text;html=1;align=center;verticalAlign=middle;whiteSpace=wrap;rounded=0;" vertex="1" parent="1">
          <mxGeometry x="400" y="185" width="60" height="30" as="geometry" />
        </mxCell>
        <mxCell id="dyAfvpqwDamj-RmIY7jS-59" value="Cart Changes&lt;div&gt;&lt;br&gt;&lt;/div&gt;" style="text;html=1;align=center;verticalAlign=middle;whiteSpace=wrap;rounded=0;" vertex="1" parent="1">
          <mxGeometry x="420" y="210" width="60" height="30" as="geometry" />
        </mxCell>
        <mxCell id="dyAfvpqwDamj-RmIY7jS-62" value="Payment Details&lt;div&gt;&lt;br&gt;&lt;/div&gt;" style="text;html=1;align=center;verticalAlign=middle;whiteSpace=wrap;rounded=0;" vertex="1" parent="1">
          <mxGeometry x="510" y="210" width="60" height="30" as="geometry" />
        </mxCell>
        <mxCell id="dyAfvpqwDamj-RmIY7jS-63" value="" style="endArrow=classic;html=1;rounded=0;" edge="1" parent="1" source="dyAfvpqwDamj-RmIY7jS-9">
          <mxGeometry width="50" height="50" relative="1" as="geometry">
            <mxPoint x="373.28932188134524" y="325" as="sourcePoint" />
            <mxPoint x="400" y="275" as="targetPoint" />
          </mxGeometry>
        </mxCell>
        <mxCell id="dyAfvpqwDamj-RmIY7jS-64" value="Cart Items" style="text;html=1;align=center;verticalAlign=middle;whiteSpace=wrap;rounded=0;" vertex="1" parent="1">
          <mxGeometry x="390" y="270" width="60" height="30" as="geometry" />
        </mxCell>
        <mxCell id="dyAfvpqwDamj-RmIY7jS-66" value="" style="endArrow=classic;startArrow=classic;html=1;rounded=0;" edge="1" parent="1" source="dyAfvpqwDamj-RmIY7jS-1">
          <mxGeometry width="50" height="50" relative="1" as="geometry">
            <mxPoint x="410" y="380" as="sourcePoint" />
            <mxPoint x="410" y="400.71067811865476" as="targetPoint" />
          </mxGeometry>
        </mxCell>
        <mxCell id="dyAfvpqwDamj-RmIY7jS-68" value="&lt;font style=&quot;font-size: 14px;&quot; face=&quot;Comic Sans MS&quot;&gt;Client&lt;/font&gt;" style="text;html=1;align=center;verticalAlign=middle;whiteSpace=wrap;rounded=0;" vertex="1" parent="1">
          <mxGeometry x="170" y="70" width="60" height="30" as="geometry" />
        </mxCell>
      </root>
    </mxGraphModel>
  </diagram>
</mxfile>
